<?xml version="1.0" standalone="yes"?>
<svg xmlns="http://www.w3.org/2000/svg" 
     width="334" 
     height="384" 
     viewBox="0 0 334 384"
     class="qr"
     style="color-scheme: light; forced-color-adjust: none;">
  
  <!-- Background -->
  <rect width="334" height="384" fill="#ffffff"/>
  
  <!-- QR Code (centered with padding) -->
  <g transform="translate(20, 20)">
    <path d="M0 0h7v7h-7zM18 0h1v1h-1zM20 0h4v1h3v-1h1v1h1v-1h1v1h-1v3h-1v-2h-5v-1h-3zM32 0h1v1h-1zM35 0h3v1h2v-1h1v3h-1v1h-1v-2h-1v3h-1v-1h-2v-1h-1v2h-2v1h-1v1h-1v-3h1v-1h-1v-1h1v1h2v-2h2zM42 0h7v7h-7zM1 1v5h5v-5zM9 1h1v1h2v-1h1v1h-1v2h1v-1h1v1h2v2h-1v1h-1v-1h-1v2h-3v4h-1v-1h-1v1h1v1h1v-1h2v-2h-1v-1h1v1h1v-1h2v1h-1v2h2v-1h-1v-1h1v-2h-1v-1h1v-1h1v-2h2v-1h-1v-1h1v-1h1v1h-1v1h1v-1h3v1h-3v1h-1v1h1v-1h1v1h1v-1h1v-1h4v2h1v1h-1v1h1v-1h1v2h3v-2h1v1h1v-1h1v-1h1v1h-1v1h1v-1h1v1h-1v1h1v-1h1v-2h1v2h1v-1h1v2h-4v1h-4v1h-1v1h-1v-1h-1v1h-2v-1h-1v-1h-2v2h-1v-1h-1v1h-2v2h-3v1h-1v-2h-1v2h-1v1h1v-1h1v1h-1v1h2v-2h1v1h1v-1h1v-1h1v-1h1v-1h1v2h-1v1h-1v1h-1v1h-2v1h-2v1h-1v-1h-2v1h1v1h-1v1h-1v-2h-1v-2h-1v1h-1v1h-1v1h-1v1h1v-1h1v1h-1v1h1v-1h1v-2h1v2h1v1h-1v3h-1v2h-2v2h-1v-1h-5v-1h-1v1h1v1h-2v-3h-1v-1h1v-1h2v1h-1v1h2v-3h-2v-1h2v1h4v-1h-3v-1h-5v-1h4v-2h-1v-1h-2v-1h1v-1h3v1h1v-1h1v-1h-2v-2h1v-1h2v-1h-2v-1h2v-2h1v-1h-1v-1h2v-1h-1zM14 1h1v1h-1zM35 1v2h1v-1h1v-1zM43 1v5h5v-5zM2 2h3v3h-3zM15 2h2v1h-2zM44 2h3v3h-3zM10 5v1h-1v1h1v-1h1v1h1v-2zM23 5v3h3v-3zM17 6v1h1v-1zM19 6v5h-2v1h3v-2h2v-1h-1v-1h1v-2h-1v1h-1v-1zM24 6h1v1h-1zM2 8h2v1h-2zM27 8v1h1v-1zM41 8h2v1h1v-1h1v1h-1v1h-1v1h-2zM0 9h2v1h-2zM17 9v1h1v-1zM37 9h1v1h-1zM47 9h1v1h-1zM26 10h1v1h1v3h-1v1h1v-1h1v-2h1v-1h1v1h-1v1h2v1h1v1h1v2h-1v-1h-4v-1h-1v1h-2v-1h-1v1h1v1h-2v1h-2v-1h1v-3h1v-1h1v-2h1zM34 10h1v1h-1zM36 10h1v1h1v1h-1v1h-1v2h-1v-4h1zM45 10h1v1h2v1h-1v1h-1v-1h-2v-1h1zM0 11h2v1h1v-1h1v1h-1v1h-2v-1h-1zM6 11v1h1v-1zM39 11h2v1h1v1h-3v2h3v-1h1v-2h1v1h1v1h-1v1h1v-1h1v1h-1v3h-2v-1h-1v-1h-1v1h1v1h-1v1h-2v-1h1v-2h-2v2h-1v-5h1v-1h1zM48 12h1v2h-1v1h1v4h-1v1h-1v-2h1v-1h-2v-1h1v-3h1zM12 13v1h1v-1zM13 14v1h-1v1h2v-2zM29 14v1h1v-1zM3 15v1h1v-1zM6 15v1h-1v4h2v-1h-1v-1h2v-1h-2v-1h1v-1zM8 15v1h2v-1zM42 15v1h1v-1zM0 16h1v1h-1zM35 16h1v2h-2v-1h1zM1 17h1v1h-1zM19 17h2v1h-1v1h3v1h1v-2h1v1h1v-1h2v-1h2v1h-2v1h-2v1h1v2h1v-3h2v-1h2v-1h1v2h-1v1h-2v1h1v1h-1v1h-3v3h1v-1h1v-1h1v1h1v-2h1v1h1v-1h1v-1h1v-1h-1v-1h-1v-1h2v1h1v-2h1v1h1v1h-2v2h-1v2h-2v1h-2v3h1v-2h1v2h1v1h1v4h-2v-1h-1v2h-3v-2h-2v2h-1v-1h-1v1h1v1h3v1h-1v1h-1v2h-1v1h1v-1h1v-2h1v1h1v-1h1v-1h-1v-1h1v1h1v-2h1v1h1v-1h1v-1h3v3h1v-3h1v1h1v1h-1v1h1v-1h2v-2h1v-2h-1v1h-1v-1h-1v-1h-1v2h-3v-1h-1v-2h1v-1h2v1h-2v1h2v-1h1v-2h-2v-1h-1v1h-1v1h-1v-4h1v-2h1v2h1v1h1v-1h1v-1h-1v-1h2v-1h2v1h2v-4h1v3h1v1h-1v1h2v2h1v1h-1v1h1v6h-2v-2h-1v2h1v1h-1v1h-1v1h1v-1h3v1h-1v1h1v1h-1v1h-3v-1h-1v1h-1v-2h1v-2h-1v1h-1v3h-1v-2h-1v1h-1v2h-2v-1h-1v-1h1v-1h-2v-2h-1v1h-2v1h-1v1h-1v3h-1v-2h-1v2h-1v1h3v2h-1v-1h-1v2h-2v1h1v1h-1v1h-1v-1h-1v-1h-1v-1h-1v1h-1v1h2v2h-2v-1h-2v-1h-1v1h-1v-2h-1v-1h-1v-2h-1v2h1v1h-3v-1h1v-1h-2v-1h-1v-2h1v2h1v-4h1v2h1v1h3v-1h-2v-1h-1v-1h1v-1h-5v-1h2v-1h1v-1h-1v-1h1v1h1v1h2v2h1v-1h1v-1h-1v-1h2v1h1v2h-1v-1h-1v1h-1v3h1v2h-1v2h1v1h1v-1h2v-3h-1v-2h-2v-1h2v1h1v-3h2v-1h-1v-1h-2v-1h-1v-2h-1v-1h1v1h1v-1h1v-4h1v-2h-1v1h-2v-2h-2v1h1v1h-3v1h1v1h-1v2h-1v-3h-1v1h-2v2h1v1h-1v1h1v-1h1v-1h1v2h-1v1h-3v-1h-2v1h-3v-1h2v-1h-1v-1h-1v-1h-2v-1h4v1h-1v1h1v-1h1v2h2v-4h1v-1h1v-2h3v-1h-2v-1h1v-2h1v-1h1v1h-1v2h1v-1h1v2h1v-1h2v1h2v-1h1v-1h-1v-1h-1v1h-2v-1h-1v-2h1zM41 19h1v1h-1zM43 19h1v1h-1zM24 20v2h1v-2zM38 20h2v1h-2zM48 20h1v1h-1zM10 21v1h-1v1h1v-1h1v-1zM32 21h1v1h-1zM5 23v3h3v-3zM23 23v3h3v-3zM41 23v3h3v-3zM6 24h1v1h-1zM9 24v1h1v-1zM24 24h1v1h-1zM42 24h1v1h-1zM45 24v3h-1v1h-1v-1h-1v1h-1v1h1v1h1v-1h1v1h4v-1h-3v-1h2v-3h-1v-1zM13 25v1h1v-1zM39 25v1h1v-1zM18 26h1v1h-1zM28 26v1h1v-1zM17 27h1v3h-1v-1h-1v-1h1zM19 27h1v3h-1zM23 27v1h-1v1h2v-1h2v2h-1v-1h-1v3h-1v1h-1v-1h-1v2h3v-2h1v-1h1v-1h1v1h2v1h2v-1h-1v-2h-1v-1h-2v-1zM29 27v1h1v-1zM1 29h2v1h-1v1h-2v-1h1zM28 29h1v1h-1zM4 30h1v1h-1zM15 30h1v1h-1zM22 30v1h1v-1zM31 30v1h3v-1zM2 31h2v2h1v1h-2v-1h-1zM16 31h1v1h1v2h-4v-2h1v1h1zM0 32h1v2h-1zM8 33h1v1h-1zM44 33v1h1v-1zM6 34h1v1h-1zM9 34h2v1h-2zM36 34v1h1v-1zM0 35h4v1h-1v1h-1v-1h-2zM5 35h1v1h-1zM24 35v2h-1v1h1v-1h1v-2zM6 36h1v1h-1zM8 36h1v3h1v1h-1v3h-1v-2h-2v-1h1v-1h-2v-1h2v-1h1zM3 37h1v1h-1zM32 37h2v2h-1v-1h-1zM46 37v1h1v-1zM1 38h1v1h2v1h-1v1h-3v-1h1zM7 38v1h1v-1zM24 38v2h1v-2zM31 38h1v1h-1zM15 39v1h1v-1zM32 39h1v2h1v-2h1v2h-1v2h1v-1h2v1h1v1h-2v1h2v-1h1v1h-1v1h-3v-1h-1v-1h-1v-1h-2v-1h1v-1h-1v-1h1zM48 39h1v5h-1v-1h-1v-1h-1v3h-1v2h2v1h2v1h-4v-1h-2v-1h-1v-2h-1v1h-1v-4h-2v-1h2v-1h7v2h1zM21 40v2h1v-2zM23 41v3h3v-3zM41 41v3h3v-3zM0 42h7v7h-7zM24 42h1v1h-1zM42 42h1v1h-1zM1 43v5h5v-5zM19 43h1v1h-1zM2 44h3v3h-3zM9 44h1v3h-2v-2h1zM30 44h2v1h1v1h2v1h-1v1h-2v1h-2v-1h-1v-1h-1v-2h2zM30 45v1h1v-1zM43 45v1h1v-1zM48 45h1v1h-1zM15 46h1v1h-1zM31 46v1h1v-1zM39 46h1v1h-1zM12 47h3v1h1v1h-3v-1h-1zM36 47h2v1h-1v1h-1zM41 47h1v1h-1zM10 48h2v1h-2zM18 48h1v1h-1zM24 48h1v1h-1zM27 48h2v1h-2zM34 48h1v1h-1zM38 48h1v1h-1z" fill="##000000" transform="translate(0,0) scale(6)"/>
  </g>
  
  <!-- Label Section -->
  <g transform="translate(0, 324)">
    <!-- Icon (emoji as text) -->
    <text x="107" 
          y="20" 
          font-family="Arial, sans-serif" 
          font-size="20" 
          fill="#333333">💬</text>
    
    <!-- Item Title -->
    <text x="132" 
          y="20" 
          font-family="Arial, sans-serif" 
          font-size="12" 
          font-weight="bold"
          fill="#333333" 
          text-anchor="start">Azpilcueta Money Scarci...</text>
    
    <!-- Flag -->
    <text x="227" 
          y="20" 
          font-family="Arial, sans-serif" 
          font-size="16" 
          fill="#333333">🇫🇷</text>
  </g>
</svg>
