<?xml version="1.0" standalone="yes"?>
<svg xmlns="http://www.w3.org/2000/svg" 
     width="334" 
     height="384" 
     viewBox="0 0 334 384"
     class="qr"
     style="color-scheme: light; forced-color-adjust: none;">
  
  <!-- Background -->
  <rect width="334" height="384" fill="#ffffff"/>
  
  <!-- QR Code (centered with padding) -->
  <g transform="translate(20, 20)">
    <path d="M0 0h7v7h-7zM8 0h3v1h-3zM14 0h3v1h-1v1h1v1h-2v-2h-1zM18 0h1v2h-1zM21 0h1v1h-1zM23 0h1v1h-1zM27 0h1v1h1v1h-1v1h-1zM31 0h1v1h-1zM33 0h5v1h-3v2h-1v1h4v1h-3v2h-1v-1h-1v-1h-2v-3h1v2h1v-2h1v-1h-1zM40 0h1v3h-1v1h-1v-2h-1v-1h2zM42 0h7v7h-7zM1 1v5h5v-5zM12 1h1v3h-1v-1h-1v1h-3v-1h1v-1h3zM20 1h1v1h-1zM24 1h1v1h-1zM43 1v5h5v-5zM2 2h3v3h-3zM19 2h1v1h-1zM21 2h1v1h-1zM29 2h1v1h-1zM44 2h3v3h-3zM14 3h1v1h-1zM18 3h1v1h-1zM22 3h3v1h4v4h1v1h-4v1h-1v-1h-2v1h-2v2h-2v-1h1v-1h-1v-1h-1v-1h1v-1h-1v-2h2v-1h2zM15 4h2v4h-1v-3h-1zM11 5h3v1h-1v2h-1v1h-2v-1h-1v-1h-1v-1h1v1h1v-1h1zM21 5v2h1v-2zM23 5v3h3v-3zM30 5h1v2h-1zM38 5h1v2h-1zM11 6v1h-1v1h1v-1h1v-1zM14 6h1v1h-1zM19 6v1h1v-1zM24 6h1v1h-1zM27 6v1h1v-1zM32 6h1v2h-1v1h-1v-2h1zM36 6h1v1h-1zM40 6h1v2h-1zM37 7h1v2h-2v-1h1zM2 8h1v1h-1zM4 8h3v1h-3zM8 8h1v1h-1zM14 8h2v1h2v2h-2v-1h-1v1h-2v-2h1zM21 8v1h1v-1zM33 8h2v1h-2zM41 8h1v1h-1zM45 8h1v4h-1v1h-4v-1h3v-1h-1v-1h2zM48 8h1v3h-2v-2h1zM0 9h1v1h-1zM9 9h1v1h-1zM1 10h1v1h-1zM3 10h1v1h-1zM5 10h2v1h-2zM8 10h1v1h-1zM11 10h1v1h-1zM26 10h1v2h-1v1h-1v-2h1zM30 10h2v1h-1v1h-1v1h1v1h-2v-1h-1v-2h2zM36 10h1v2h2v1h-2v1h-1v-1h-1v-2h1zM40 10h2v1h-2zM0 11h1v3h1v-1h1v3h-1v2h-2v-1h1v-2h-1zM4 11h1v2h-1zM7 11h1v2h-2v-1h1zM10 11h1v5h1v-1h1v1h2v-1h1v-1h-1v-2h1v1h1v1h1v-2h1v2h-1v1h-1v1h-2v1h-1v2h-2v1h-1v-1h-2v-1h-1v-1h-2v-1h3v-3h1zM12 11h1v1h-1zM13 12h1v2h-1zM21 12h3v1h-1v1h-1v-1h-1zM32 12h1v2h-1zM47 12h1v1h1v2h-2v-1h-1v-1h1zM20 13h1v1h-1zM24 13h1v1h-1zM39 13h1v1h-1zM6 14h1v1h-1zM19 14h1v1h-1zM21 14h1v1h-1zM23 14h1v1h-1zM28 14h1v1h-1zM33 14h1v1h-1zM35 14h1v1h-1zM41 14h1v2h2v-2h1v3h1v-2h1v2h2v2h-1v1h-1v-1h-1v-1h-1v2h1v1h3v2h-1v1h1v1h-2v-2h-2v1h1v2h-1v1h-2v2h-2v-1h-1v-2h-1v-1h-2v1h-1v1h-1v-2h-1v1h-1v-1h-1v-1h3v-2h1v-1h-2v-4h1v-1h-1v-1h1v1h1v-1h1v5h1v-3h1v-1h-1v-1h3zM4 15h1v1h-1zM18 15h1v1h1v-1h1v2h-3zM25 15h3v1h-2v1h-1zM29 15h2v3h-1v1h1v-1h1v-1h1v1h-1v1h1v2h-1v-1h-1v1h1v1h1v1h-2v1h-1v2h-1v-1h-2v1h1v1h1v2h-1v-1h-1v-1h-1v2h-1v-2h-2v1h1v1h-1v1h1v1h-2v1h-1v-1h-1v-1h-2v1h-1v1h-3v1h-3v1h2v1h-1v2h3v-1h-1v-1h1v1h4v-3h-2v-1h1v-1h2v1h-1v1h3v1h2v-1h-1v-1h1v-1h1v1h-1v1h2v-4h2v1h-1v4h-2v1h-1v1h-1v-1h-2v-1h-1v1h1v2h-1v-1h-1v1h-2v1h-2v1h4v2h-1v-1h-3v1h-1v2h-3v-1h1v-1h1v-1h1v-2h-1v1h-2v-4h-1v3h-1v1h-1v-1h-1v-1h-2v-1h-1v1h-1v-1h-1v-1h1v-1h1v-1h-1v-3h-1v-1h-2v-1h3v1h2v1h-1v3h1v-1h2v-1h-1v-1h1v-1h-1v-1h1v-1h-3v-3h-2v1h-2v-1h1v-1h-1v-4h1v1h2v1h1v-1h1v-1h-3v-1h1v-2h1v2h4v1h-2v1h-1v1h-1v1h-3v1h3v-1h5v-1h-1v-2h1v2h1v-1h1v1h-1v1h-1v2h1v1h-1v1h1v-1h1v1h1v-2h2v2h-2v1h-4v2h2v-1h3v-1h1v2h-2v2h-1v1h1v-1h1v-1h1v1h2v-1h-1v-1h2v-1h1v1h1v-1h1v2h1v-1h1v-3h-1v-2h-1v1h-1v-1h-1v-1h-1v-1h-1v-1h-1v-1h-1v-1h1v-2h1v1h1v-1h1v1h-1v2h-1v-1h-1v1h1v1h2v-3h1v1h1v-1h1v-1h1v-1h1v1h-1v1h1v1h1v-1h1v1h1v1h2v-2h-1v-1h1v-1h1zM32 15h1v1h-1zM9 16v1h1v-1zM10 17v1h3v-1zM28 17v1h1v-1zM35 17v3h1v-3zM40 17v1h1v-1zM42 17v1h1v-1zM43 18v1h-1v1h-1v-1h-1v1h-2v2h-2v1h1v1h2v1h1v-3h3v-1h-1v-1h2v-2zM21 19v1h-1v2h-2v1h3v1h1v-5zM6 20h1v1h-1zM13 20h1v1h1v2h-4v-2h2zM24 20v1h-1v1h2v-2zM28 20v2h-1v2h2v-2h1v-1h-1v-1zM44 21v1h1v-1zM5 23v3h3v-3zM15 23h1v1h-1zM23 23v3h3v-3zM41 23v3h3v-3zM6 24h1v1h-1zM24 24h1v1h-1zM42 24h1v1h-1zM2 25h1v2h-3v-1h2zM16 25h2v1h-2zM19 26h2v1h-2zM30 26h1v1h-1zM32 26h1v1h-1zM37 26h1v2h1v1h-2v1h1v1h-2v-1h-1v-1h-2v-1h3v-1h1zM48 26h1v1h-1zM15 27h1v1h-1zM31 27h1v2h1v1h-1v3h1v-1h1v-1h-1v-1h1v1h2v2h1v-1h1v-1h1v-2h2v1h2v2h1v-1h1v-1h-1v-2h2v1h1v1h1v-2h1v8h-1v-1h-3v-1h1v-1h-1v-1h-1v1h-1v1h1v2h-1v2h1v2h1v-4h1v2h1v-2h1v1h1v2h-1v2h1v4h-1v-2h-2v-1h1v-1h-2v3h1v1h-1v4h-1v-1h-1v-1h-1v-1h-1v-1h-1v-1h-2v-1h-1v-1h-1v1h1v1h1v1h-4v-2h-1v3h1v1h-1v1h1v-1h1v-1h2v1h1v1h-1v1h-1v-1h-2v1h-5v-1h-1v1h-2v-1h-1v-2h2v1h-1v1h1v-1h2v1h2v-1h-1v-2h-1v1h-1v-2h2v-2h3v-1h-4v1h-2v3h-5v1h-1v-2h-2v-1h2v1h1v-2h-1v-1h-1v-2h2v-1h-1v-1h1v-1h1v1h-1v1h1v1h1v-1h1v-1h1v1h-1v1h1v1h1v-1h1v-1h-1v-1h1v-1h1v-1h-1v-2h1v-1h-1v-1h1v-2h1v-1h1zM41 27v1h1v-1zM0 30h1v2h-1zM9 30v1h1v-1zM30 30v1h-1v1h1v1h-1v1h2v-4zM39 31v1h-1v1h-1v1h-1v1h1v1h1v-1h1v-2h1v2h-1v2h-3v-1h-1v-3h-2v1h-1v2h-3v2h1v-1h1v1h1v-2h1v-1h1v1h-1v1h1v1h-2v1h-1v1h1v-1h2v1h2v-1h-1v-1h2v1h1v1h1v1h-1v1h2v-2h1v-1h1v-4h-1v-2h1v-2zM45 31v1h1v1h2v-1h-1v-1zM1 32h1v2h-1zM6 33v1h3v-1zM16 33h1v1h-1zM17 34h1v1h-1zM5 35v1h2v-1zM40 35h1v1h-1zM1 36h1v1h-1zM7 36v1h2v-1zM2 37h1v1h-1zM19 37h1v1h-1zM1 38h1v1h2v1h-1v1h-3v-1h1zM5 38h2v1h-2zM28 39v1h1v-1zM46 39v1h1v-1zM6 40h5v1h-2v1h-1v-1h-2zM21 40v1h1v-1zM16 41h1v1h-1zM23 41v3h3v-3zM34 41v1h1v-1zM41 41v3h3v-3zM0 42h7v7h-7zM9 42h1v4h1v-1h1v-1h1v3h2v-1h-1v-3h1v-1h1v1h-1v2h2v1h-1v1h-1v1h-1v1h-1v-1h-1v-2h-1v2h-1v1h-1v-2h-1v-1h1v-1h-1v-2h1zM17 42h1v1h-1zM24 42h1v1h-1zM42 42h1v1h-1zM1 43v5h5v-5zM16 43h1v1h-1zM2 44h3v3h-3zM18 44h1v1h1v2h-1v-1h-1zM30 44v1h1v2h1v-3zM39 45h1v2h1v1h-1v1h-1zM42 45v1h1v-1zM47 45h1v1h1v1h-1v1h1v1h-2v-2h-1v-1h1zM22 46h2v2h-1v-1h-1zM16 47h1v2h-1zM20 47h1v2h-1zM11 48h1v1h-1zM18 48h1v1h-1zM24 48h1v1h-1zM41 48h1v1h-1z" fill="##000000" transform="translate(0,0) scale(6)"/>
  </g>
  
  <!-- Label Section -->
  <g transform="translate(0, 324)">
    <!-- Icon (emoji as text) -->
    <text x="107" 
          y="20" 
          font-family="Arial, sans-serif" 
          font-size="20" 
          fill="#333333">💬</text>
    
    <!-- Item Title -->
    <text x="132" 
          y="20" 
          font-family="Arial, sans-serif" 
          font-size="12" 
          font-weight="bold"
          fill="#333333" 
          text-anchor="start">Mises Consumers Supreme</text>
    
    <!-- Flag -->
    <text x="227" 
          y="20" 
          font-family="Arial, sans-serif" 
          font-size="16" 
          fill="#333333">🇫🇷</text>
  </g>
</svg>
