<?xml version="1.0" standalone="yes"?>
<svg xmlns="http://www.w3.org/2000/svg" 
     width="334" 
     height="384" 
     viewBox="0 0 334 384"
     class="qr"
     style="color-scheme: light; forced-color-adjust: none;">
  
  <!-- Background -->
  <rect width="334" height="384" fill="#ffffff"/>
  
  <!-- QR Code (centered with padding) -->
  <g transform="translate(20, 20)">
    <path d="M0 0h7v7h-7zM18 0h1v1h1v-1h1v1h-1v1h-3v-1h1zM23 0h4v1h-2v2h2v1h2v1h-2v4h-2v1h-1v3h-1v1h-1v1h-2v-1h-1v2h2v1h-4v1h-1v-1h-2v1h1v1h-1v1h-3v-1h1v-1h-1v-1h-1v1h-1v1h-1v1h1v-1h1v1h-1v1h1v-1h1v1h-1v1h-1v1h1v-1h2v-1h1v1h1v-2h1v-1h2v4h1v-1h1v-1h1v-1h-2v-2h1v1h1v-1h1v1h2v1h1v-2h-2v-1h1v-3h1v-1h1v-2h1v-1h2v4h-1v1h1v-1h1v-2h1v-1h-1v-2h-1v-1h3v1h1v-4h1v-2h-1v1h-1v-1h-1v-1h2v-1h-2v-1h2v1h3v-1h3v1h2v-1h1v3h-1v1h-1v-2h-1v3h-1v-1h-2v-1h-1v2h-1v2h1v-1h1v-1h1v1h-1v1h1v-1h1v1h-1v1h1v-1h1v-2h1v2h-1v1h-1v1h-4v1h-3v1h1v1h-1v1h2v1h1v-1h1v-1h-1v-1h1v-1h1v1h-1v1h2v-2h1v-1h1v1h-1v3h-3v4h-1v-1h-2v-1h-1v-1h-1v1h-1v1h-2v-1h-1v1h1v1h-2v1h1v2h-1v2h1v-2h1v2h2v-3h-2v-1h2v-1h1v1h-1v1h1v-1h1v-1h1v1h-1v1h-1v3h1v1h2v1h1v-1h1v-1h1v-1h-1v-1h-1v-1h-1v1h-1v1h-1v-2h1v-1h1v-1h1v2h2v-1h-1v-1h1v-1h1v1h-1v1h2v-3h-2v-1h2v-1h1v-1h1v-1h2v-3h-2v-1h1v-1h1v2h2v1h1v-1h1v2h1v1h3v1h-1v1h1v1h-1v1h1v4h-1v1h-1v-2h1v-1h-2v-1h1v-2h-1v1h-1v-1h-1v1h1v3h-2v-1h-1v-1h-1v1h1v1h-1v1h1v1h-2v1h-2v-1h-2v-1h-1v1h1v2h-1v2h-2v1h-2v3h1v-2h1v2h1v1h1v4h-2v-1h-1v2h-3v-2h2v-1h-1v-2h-1v-1h-1v-1h-1v1h-1v-1h-4v-5h-1v-1h-1v1h-1v1h2v3h-2v-2h-2v1h1v1h-3v1h1v1h-1v1h-1v-2h-1v1h-2v-2h-2v2h-1v-1h-5v-1h-1v1h-1v1h-1v-2h1v-1h-1v-1h1v-1h2v1h-1v1h2v-3h-2v-1h2v1h4v-1h-3v-1h-5v-1h4v-2h-1v-1h-2v-1h1v-2h-1v-1h1v-2h-2v-1h2v-1h2v1h-2v1h1v2h1v2h1v1h-2v1h2v-1h1v-1h1v-1h-2v-2h-1v-1h1v-1h1v-1h2v-2h1v1h1v-1h1v1h-1v1h1v-1h1v-2h-4v-1h2v-1h-1v-1h1v1h1v-1h1v-1h2v1h-2v2h2v1h-1v3h-2v1h-3v1h-1v-1h-1v1h1v1h-1v1h1v-1h1v1h1v1h1v-1h1v1h1v1h1v1h-1v1h2v-2h1v-2h1v-1h-1v-1h1v-2h-1v-1h-1v-1h1v-2h1v2h-1v1h1v-1h1v1h1v-1h1v-1h-1v-1h-1v-1h-3v-1h3v1h1v1h1v-1h1v-1h1v-1h1v1h-1v1h-1v1h-1v1h1v-1h1v-1h1v1h-1v1h1v-1h1v-2h1v-1h-1zM28 0h1v2h-2v-1h1zM42 0h7v7h-7zM1 1v5h5v-5zM35 1v2h1v-1h1v-1zM43 1v5h5v-5zM2 2h3v3h-3zM44 2h3v3h-3zM30 4h1v3h-1zM23 5v3h3v-3zM19 6v3h-1v1h-1v1h1v1h2v-2h2v-4h-1v1h-1v-1zM24 6h1v1h-1zM28 6h1v1h-1zM14 8h1v1h-1zM11 9h1v1h-1zM13 9h1v1h-1zM47 9h1v1h-1zM10 10h1v1h-1zM12 10h1v1h1v1h-2zM43 10v1h-1v1h-1v1h-2v2h2v-1h2v-1h-1v-1h2v-2zM21 11v2h-1v1h1v-1h1v-1h1v-1zM44 12v1h2v-1zM17 14v1h-2v1h3v-2zM6 15v1h-1v2h3v-1h-2v-1h1v-1zM8 15v1h2v-1zM42 15v1h1v-1zM0 16h1v1h-1zM38 16v2h-1v1h1v1h1v-2h1v-2zM1 17h1v1h-1zM12 17v1h1v-1zM45 18h1v3h1v1h-1v1h2v2h1v1h-1v2h-1v-3h-1v-1h-1v3h-1v1h-1v-1h-1v1h-1v-1h-1v-1h-1v1h-1v-1h-1v1h-1v1h-1v-4h1v-2h1v2h1v1h1v-1h1v-1h-1v-1h2v-1h2v1h2zM5 19v1h2v-1zM43 19h1v1h-1zM15 20v2h1v-2zM21 20v1h1v-1zM48 20h1v1h-1zM32 21h1v1h-1zM5 23v3h3v-3zM11 23v3h1v-3zM13 23v1h2v-1zM23 23v3h3v-3zM27 23v2h1v-1h1v-1zM41 23v3h3v-3zM6 24h1v1h-1zM9 24v1h1v-1zM24 24h1v1h-1zM42 24h1v1h-1zM13 25v1h1v-1zM28 26v1h1v-1zM2 27h1v1h5v1h-2v1h-1v-1h-3zM18 27h2v3h-1v1h-2v-2h-1v-1h2zM21 27h1v2h1v1h-1v2h2v-1h-1v-1h1v-2h2v2h1v-1h1v1h-1v2h-1v4h1v-1h2v1h-1v1h-1v2h-1v1h1v-1h1v-2h1v1h1v-1h1v1h-1v3h-1v-2h-1v2h-1v1h3v-1h1v-1h1v-1h1v-1h-1v-1h2v2h-1v2h1v-2h1v2h-1v2h2v-1h-1v-1h1v1h1v1h1v1h-2v1h2v-1h1v1h-1v1h-3v-1h-1v-1h-1v-1h-2v-1h-1v1h-2v2h-2v1h1v1h-1v1h-1v-1h-1v-1h-1v-1h-1v1h-1v-4h-1v1h-1v-3h-1v-1h1v-1h-2v-1h1v-1h1v2h1v1h-1v1h1v1h1v1h1v-2h-1v-3h-1v-1h1v1h2v2h1v-2h1v-1h-1v-1h-1v-1h-1v1h-2v-1h-2v1h-1v-1h-2v-1h-5v-1h2v-1h-2v-1h-1v-2h1v2h2v1h1v1h1v-1h1v-1h1v1h-1v2h1v-2h1v2h1v-1h2v-1h1zM29 27v1h1v-1zM37 28h2v1h-2zM40 28h1v1h-1zM45 28h2v2h1v-1h1v4h-2v-2h-1v1h-1v1h-1v1h1v-1h2v1h-1v1h-1v1h1v-1h3v1h-1v1h1v1h-1v1h-1v-1h-1v1h-1v-1h-2v-2h-1v1h-2v1h-1v2h-2v-1h1v-1h-2v-3h-1v1h-5v-1h2v-1h1v1h1v-1h1v-1h2v-1h1v-1h-2v-2h1v1h3v2h-1v1h-1v1h-2v1h1v1h1v1h1v-4h1v1h1v1h-1v1h1v-1h2v-3h-1v-1h-1v-2h1v1h1v-1h1v1h-1v1h2v-1h1v-1h-1zM0 29h2v1h-2zM13 29h1v1h-1zM31 29v1h2v-1zM3 30h2v1h-2zM6 30h2v1h-2zM33 30v1h1v-1zM0 31h2v1h2v1h1v-1h2v1h-2v1h-2v-1h-1v1h1v1h1v1h1v-1h1v-1h2v2h-1v-1h-1v1h-1v1h-1v1h-2v1h2v1h-1v1h-3v-1h1v-4h-1v-1h1v-3h-1zM8 32h1v1h-1zM24 32v1h-1v1h2v-2zM27 32h1v1h-1zM9 33h1v1h-1zM10 34h1v1h-1zM12 34h1v1h-1zM13 35h1v1h-1zM22 35h1v1h-1zM43 35v1h1v-1zM2 36v1h1v-1zM6 36h1v1h-1zM8 36h1v1h-1zM10 36h3v1h-2v1h-2v-1h1zM5 37h1v1h1v1h-2zM13 37h1v1h-1zM12 38h1v1h-1zM15 38h1v1h-1zM41 38h1v1h-1zM7 39h3v1h-1v3h-1v-2h-2v-1h1zM11 39h1v1h-1zM14 39h1v1h-1zM16 39h1v1h-1zM43 39h1v1h1v1h1v-1h1v2h-1v3h-1v2h2v1h2v1h-4v-1h-2v-1h-1v1h-3v-3h1v-3h-2v-1h2v-1h3zM48 39h1v5h-1v-1h-1v-1h1zM12 40h1v1h-1zM15 40h1v1h-1zM10 41h2v2h-2zM13 41h1v1h3v-1h1v2h-2v1h1v1h1v1h3v1h2v2h-2v-1h-2v-1h-1v1h-1v-2h-4zM23 41v3h3v-3zM31 41v1h1v-1zM41 41v3h3v-3zM0 42h7v7h-7zM24 42h1v1h-1zM42 42h1v1h-1zM1 43v5h5v-5zM14 43v2h1v-2zM2 44h3v3h-3zM9 44h1v3h-2v-2h1zM30 44h2v1h1v1h2v1h-1v1h-2v1h-1v-1h-1v-1h-1v1h-1v-3h1v1h1zM41 45v1h-1v1h1v-1h1v-1zM43 45v1h1v-1zM48 45h1v1h-1zM11 46h2v1h2v1h1v1h-3v-1h-1v1h-2v-1h1zM31 46v1h1v-1zM36 47h2v1h-1v1h-1zM18 48h1v1h-1zM24 48h1v1h-1zM27 48h1v1h-1zM34 48h1v1h-1zM38 48h1v1h-1z" fill="##000000" transform="translate(0,0) scale(6)"/>
  </g>
  
  <!-- Label Section -->
  <g transform="translate(0, 324)">
    <!-- Icon (emoji as text) -->
    <text x="107" 
          y="20" 
          font-family="Arial, sans-serif" 
          font-size="20" 
          fill="#333333">💬</text>
    
    <!-- Item Title -->
    <text x="132" 
          y="20" 
          font-family="Arial, sans-serif" 
          font-size="12" 
          font-weight="bold"
          fill="#333333" 
          text-anchor="start">Oresme Bad Money Drives...</text>
    
    <!-- Flag -->
    <text x="227" 
          y="20" 
          font-family="Arial, sans-serif" 
          font-size="16" 
          fill="#333333">🇬🇧</text>
  </g>
</svg>
