<?xml version="1.0" standalone="yes"?>
<svg xmlns="http://www.w3.org/2000/svg" 
     width="334" 
     height="384" 
     viewBox="0 0 334 384"
     class="qr"
     style="color-scheme: light; forced-color-adjust: none;">
  
  <!-- Background -->
  <rect width="334" height="384" fill="#ffffff"/>
  
  <!-- QR Code (centered with padding) -->
  <g transform="translate(20, 20)">
    <path d="M0 0h7v7h-7zM10 0h2v2h1v-2h2v1h-1v1h-1v1h-1v3h-1v-1h-1v-1h-2v-2h1v-1h1zM16 0h4v1h-4zM21 0h2v1h-2zM25 0h1v1h-1zM29 0h1v1h1v2h-1v-1h-1v2h-1v-3h1zM34 0h1v1h1v-1h1v2h-2v1h2v-1h1v-1h2v-1h1v3h-1v1h-1v-2h-1v3h1v2h-1v-1h-1v3h2v-2h1v-1h1v2h-1v1h3v1h-1v1h-1v-1h-1v1h1v1h-1v1h-1v-1h-1v1h1v1h1v1h-2v1h-1v-1h-1v-1h1v-1h-2v-2h-1v-1h-2v-1h-1v-1h-1v1h1v2h-1v1h-1v-1h-1v-1h1v-3h-1v-1h1v1h1v-1h1v-3h2v1h-1v1h1v2h-1v-1h-1v1h1v1h1v-1h1v-1h1v1h-1v1h-1v1h1v-1h1v-1h1v-3h-2v-2h-2v-1h2zM42 0h7v7h-7zM1 1v5h5v-5zM24 1h1v2h1v-2h1v3h1v1h-1v6h1v1h1v1h-1v1h1v2h-1v-1h-3v-1h1v-1h1v-1h-1v-3h-2v1h-1v3h1v2h1v1h-1v1h-1v-1h-1v1h-1v-2h-1v-1h1v-2h-1v-1h-1v-1h-1v-2h-1v1h-1v-1h-1v1h-3v-1h1v-1h-1v-1h1v1h1v-2h2v1h-1v1h1v-1h1v-2h-4v-1h3v-1h1v2h1v-1h2v-1h1v1h1v1h-1v1h1v-1h1v-1h1zM43 1v5h5v-5zM2 2h3v3h-3zM9 2v1h2v-1zM44 2h3v3h-3zM18 4v1h1v2h1v-3zM29 4h1v1h-1zM9 5h1v1h-1zM23 5v3h3v-3zM8 6h1v1h-1zM10 6h1v3h1v1h-1v1h-1v1h2v-1h1v-1h4v2h-2v-1h-1v1h-2v1h3v1h1v-1h1v-1h1v-1h1v1h1v1h-2v1h-1v1h-3v1h3v-1h1v1h-1v1h-4v3h-1v-1h-2v-1h-3v-1h-2v2h-1v-3h1v-1h-2v-2h-3v-1h1v-2h-1v-1h2v2h1v-3h2v1h-1v2h1v1h2v1h-2v1h3v-1h1v-2h-3v-1h-1v-1h1v-1h2v1h-2v1h4v-2h-1v-1h1zM17 6v1h1v-1zM21 6v1h-1v1h-1v2h1v1h1v-1h1v-1h-1v-1h1v-2zM24 6h1v1h-1zM35 8v1h1v-1zM45 8h2v1h-2zM44 9h1v2h3v-1h1v3h-2v-1h-2v1h2v1h-1v3h-1v1h2v-4h2v2h-1v2h-1v1h-1v1h-1v-1h-2v3h1v-1h1v2h3v-1h1v1h-1v1h1v5h-1v1h-1v-1h-1v-1h-1v1h1v1h-2v1h-2v-3h-2v1h1v2h-1v2h-1v1h-1v1h2v-2h1v2h-1v4h1v-2h1v-1h1v-1h-1v-1h1v-1h-1v-1h-1v-1h1v1h3v-1h1v1h-1v4h-2v2h1v-1h1v-1h1v-3h1v-2h1v-1h1v2h-1v2h-1v2h-1v1h-1v1h-1v1h-2v1h2v-1h1v2h3v1h-1v1h-1v1h-1v1h-2v1h2v-1h2v1h-1v1h2v-3h-1v-1h1v-1h1v1h-1v1h1v5h-1v-1h-2v1h-3v-1h-1v-1h-2v-2h-1v1h-2v1h-1v-1h-1v1h-1v-1h-1v-3h-1v-1h-1v-1h1v-1h1v1h-1v1h1v1h1v-2h1v3h2v1h1v-1h2v-2h-1v-1h-2v2h-1v-3h-2v-1h-1v-1h-1v-1h-1v-2h-1v-1h-1v-3h-1v-1h-1v-1h1v1h2v1h3v1h1v1h1v-1h1v-1h-1v-1h-3v-1h-3v-1h1v-3h1v-2h-1v-1h-2v1h2v1h-1v1h-1v-1h-1v1h1v1h-1v1h-2v1h-1v-1h-1v1h-1v2h-1v-2h-1v1h-2v-1h1v-1h-2v-1h-1v1h-2v-1h-1v-1h-1v2h1v3h-2v1h-1v1h1v-1h1v1h-1v1h-1v1h-2v-1h1v-2h-1v-2h-5v1h-1v1h-1v-1h-1v-2h1v-2h-1v-4h1v4h1v-1h1v-1h-1v-1h1v-1h1v-1h-1v-1h-1v-1h-1v-1h-1v-1h1v1h2v1h1v1h3v1h-1v1h1v-1h1v-2h2v1h2v1h1v1h2v1h-1v1h-1v-1h-1v-1h-1v1h1v1h1v1h2v-1h1v-2h1v2h-1v1h1v-1h1v1h-1v1h1v-1h1v2h2v-1h-1v-1h1v-2h1v-2h-1v-1h-1v-2h-1v-1h1v1h1v1h1v-2h1v1h1v-1h1v-1h1v3h-1v1h-1v-1h-1v2h4v-1h-1v-1h1v-1h1v-1h-1v-1h1v1h1v2h-2v1h2v1h2v-1h-1v-4h1v-2h4v1h-1v1h1v-1h1v1h-1v1h-1v1h1v-1h1v-1h1v1h2v2h-3v-1h-1v1h1v1h1v1h-1v1h-1v1h1v1h-1v1h-1v-1h-1v-2h-1v2h1v2h-1v-1h-1v1h1v1h-1v1h1v-1h1v-1h1v1h1v-1h1v2h-4v1h4v-1h2v-4h-1v-1h1v1h1v2h1v-4h-2v-2h2v1h2v-3h-1v1h-1v-2h2v-2h-1v-2h2v1h-1v1h1v-1h1v-2h-1v-1h1zM37 10v1h-1v1h1v-1h2v-1zM21 11v1h1v-1zM24 11h1v1h-1zM31 11h1v1h1v-1h1v1h-1v1h-2zM3 12v1h1v-1zM9 13v2h3v1h-2v2h2v-2h1v-2h-3v-1zM21 14v1h2v-1zM44 14v2h1v-2zM1 15h2v1h-2zM6 15v1h1v-1zM19 15h1v1h-1zM32 15v1h-1v1h2v-2zM43 17v1h1v-1zM6 18h1v1h-1zM16 18h3v1h-1v1h-1v1h-3v-1h2zM31 18v1h1v2h1v-3zM48 18h1v2h-1zM0 20h1v1h-1zM18 20h1v1h-1zM8 21v1h2v-1zM19 22h1v1h-1zM3 23v1h1v-1zM5 23v3h3v-3zM23 23v3h3v-3zM41 23v3h3v-3zM6 24h1v1h-1zM9 24v1h2v-1zM24 24h1v1h-1zM36 24h1v1h-1zM42 24h1v1h-1zM45 24v2h1v1h2v-1h-1v-2zM3 25v2h-1v1h6v1h1v1h1v-1h2v-1h-1v-1h-1v1h-1v-1h-5v-2zM16 27h1v2h-2v-1h1zM42 27v1h1v-1zM43 28v1h1v-1zM14 29h1v1h6v2h-2v-1h-1v1h-1v2h-1v1h1v2h1v-2h1v-1h-1v-2h1v1h1v1h1v1h3v1h1v-1h1v1h-1v1h1v-1h1v-1h1v-1h1v1h1v3h2v1h-1v1h-3v-1h-1v-1h1v-1h-2v2h-1v-1h-3v1h-2v1h3v-1h1v1h2v-1h1v3h1v1h1v2h-1v-1h-1v3h-2v-1h-3v-2h-1v-2h1v-1h-2v1h-1v-1h-1v-3h-2v-2h-2v2h-1v-3h2v-1h-3v-2h1v-2h1zM24 29h1v1h-1zM36 29v1h1v-1zM38 29v1h-1v2h-1v1h-1v2h-1v2h1v1h3v-1h1v-1h-2v-4h1v-1h1v-2zM5 30h2v1h-1v1h1v-1h1v1h-1v1h-2zM26 30h1v1h-1zM0 31h1v1h-1zM2 31h1v1h-1zM15 31v2h1v-2zM23 31h1v1h-1zM25 31h1v2h-1zM13 32v1h1v-1zM21 32h1v1h-1zM27 32h1v1h-1zM30 32v1h1v1h1v2h1v-3h-1v-1zM0 33h1v1h-1zM2 33h2v1h-1v1h1v1h-1v1h2v-1h2v-1h-1v-1h1v1h1v1h-1v1h-2v1h-3v-2h-2v-1h2zM22 33h1v1h-1zM48 34h1v1h-1zM10 35h2v1h-2zM19 35v1h1v-1zM8 36h1v1h-1zM21 36v1h2v-1zM36 36h1v1h-1zM0 37h1v1h-1zM7 37h1v2h1v-1h1v1h1v-1h2v3h-1v-1h-1v1h-1v1h-1v1h-1v-2h-2v-1h1v-1h-2v-1h2zM1 38h1v1h2v1h-1v1h-3v-1h1zM15 38h1v1h-1zM46 38h3v2h-1v-1h-1v1h-1zM36 39v1h2v-1zM14 40h1v2h-2v-1h1zM16 40h1v1h-1zM23 41v3h3v-3zM29 41h1v1h-1zM41 41v3h3v-3zM0 42h7v7h-7zM12 42h1v1h-1zM16 42h1v1h-1zM24 42h1v1h-1zM30 42h1v1h1v3h-2zM38 42h1v1h-1zM42 42h1v1h-1zM1 43v5h5v-5zM17 43h3v3h2v1h3v1h2v1h-4v-1h-1v1h-7v-1h-1v-1h1v-1h1v-1h-1v-1h2zM2 44h3v3h-3zM8 44h1v2h-1zM11 44h3v2h-1v-1h-2zM17 44v1h1v-1zM10 45h1v1h-1zM18 45v2h-1v-1h-1v2h2v-1h1v-2zM41 45v1h1v-1zM12 46h1v1h-1zM29 46h1v1h-1zM32 46h1v1h1v1h-1v1h-1zM11 47h1v1h-1zM20 47v1h1v-1zM30 47h1v2h-1zM35 47h1v1h2v1h-3zM43 47v1h1v-1zM41 48h1v1h-1z" fill="##000000" transform="translate(0,0) scale(6)"/>
  </g>
  
  <!-- Label Section -->
  <g transform="translate(0, 324)">
    <!-- Icon (emoji as text) -->
    <text x="107" 
          y="20" 
          font-family="Arial, sans-serif" 
          font-size="20" 
          fill="#333333">💬</text>
    
    <!-- Item Title -->
    <text x="132" 
          y="20" 
          font-family="Arial, sans-serif" 
          font-size="12" 
          font-weight="bold"
          fill="#333333" 
          text-anchor="start">Popper Future Is Open</text>
    
    <!-- Flag -->
    <text x="227" 
          y="20" 
          font-family="Arial, sans-serif" 
          font-size="16" 
          fill="#333333">🇫🇷</text>
  </g>
</svg>
