<?xml version="1.0" standalone="yes"?>
<svg xmlns="http://www.w3.org/2000/svg" 
     width="286" 
     height="336" 
     viewBox="0 0 286 336"
     class="qr"
     style="color-scheme: light; forced-color-adjust: none;">
  
  <!-- Background -->
  <rect width="286" height="336" fill="#ffffff"/>
  
  <!-- QR Code (centered with padding) -->
  <g transform="translate(20, 20)">
    <path d="M0 0h7v7h-7zM9 0h1v1h1v-1h3v1h-3v1h-1v1h1v-1h1v1h-1v1h2v-2h1v-1h1v-1h1v1h-1v1h-1v1h1v2h-2v2h-1v-1h-1v-1h-2v-1h-1v-2h1zM17 0h1v1h-1zM19 0h1v1h-1zM21 0h3v2h-2v-1h-1zM26 0h1v1h-1zM28 0h3v1h1v2h1v1h-1v1h-1v-1h-1v-1h1v-1h-1v-1h-1v3h1v1h-2v-1h-1v-2h1zM34 0h7v7h-7zM1 1v5h5v-5zM20 1h1v2h-1zM35 1v5h5v-5zM2 2h3v3h-3zM16 2h2v1h-1v1h-1zM24 2h1v2h2v3h-1v-1h-1v-1h-1zM36 2h3v3h-3zM18 3h1v2h-1zM21 3h2v1h-1v1h-1zM16 5h1v2h1v-1h1v1h-1v1h1v1h-2v1h-1v-1h-1v-2h-1v-1h1v1h1zM20 5h1v2h-1zM23 5h1v1h-1zM30 5h1v3h-1zM8 6h1v1h-1zM10 6h1v1h1v1h-2v2h-3v-1h-1v-1h2v1h1v-2h1zM22 6h1v1h-1zM24 6h1v2h-1zM28 6h1v2h1v1h-2v1h2v2h-2v1h-2v-1h-1v-3h2v-1h1zM32 6h1v1h-1zM13 7h1v1h-1zM21 7h1v1h1v1h1v3h1v1h-3v-1h1v-1h-2zM3 8h2v2h-1v2h-1zM37 8h2v1h-2zM1 9h1v2h-1zM12 9h1v1h-1zM31 9h1v1h-1zM33 9h1v2h1v2h-1v1h1v-1h2v1h-1v1h-2v3h-1v1h-1v1h-3v1h-1v2h1v-1h1v-1h3v1h1v2h2v1h1v-1h1v1h-1v1h1v-1h1v1h-1v1h2v-2h1v2h-1v1h-2v1h-1v-1h-1v-1h-1v-1h-1v-1h-1v2h-1v2h-1v1h-1v1h-1v1h-2v1h-1v-1h-1v-1h-2v-1h2v-1h-2v-2h1v-1h2v-1h-1v-2h1v-1h1v-2h-1v-1h1v-2h-2v-1h-1v-1h1v1h3v-1h-1v-1h1v1h1v-1h2v-1h1v-1h-1v-1h2zM35 9h2v1h-2zM5 10h2v1h-2zM11 10h1v3h-1zM14 10h2v2h-1v-1h-1zM17 10h1v1h1v-1h1v1h-1v1h1v2h-1v-1h-1v-1h-1zM26 10v1h1v-1zM38 10h1v1h-1zM7 11h2v2h-1v-1h-1zM13 11h1v2h2v1h-1v1h-1v-1h-1v1h-1v1h-1v1h-1v1h2v-2h1v2h-1v2h1v1h5v-4h1v-1h-1v-1h2v1h1v1h-2v1h2v1h-1v3h1v1h-1v1h-2v-1h1v-2h-1v1h-1v1h-1v-1h-4v-1h-1v-1h-1v-1h-1v-3h-1v5h3v1h-2v2h1v-1h1v1h1v1h2v-1h-1v-1h2v1h2v2h1v1h-1v1h-1v1h-2v1h-1v-2h-1v1h-3v-1h-1v-1h-2v-1h2v-1h-3v-1h3v-2h-1v-1h-1v1h-1v1h-2v-1h-1v1h1v1h-1v1h-1v-3h-1v-2h2v-1h1v2h2v-3h-1v-2h1v-1h-2v-1h-1v-1h2v-1h3v1h-1v1h-1v-1h-1v1h1v1h1v-1h2v1h2v-1h-1v-1h2v1h1v-1h1zM36 11h2v1h-2zM39 11h2v4h-1v3h-3v3h-1v-2h-2v-1h2v-1h3v-1h-3v-1h1v-1h1v-1h1v1h-1v1h1v-1h1v-2h-1zM0 13h1v2h-1zM21 13h1v2h-1zM32 13v1h-1v1h1v1h1v-3zM1 15h2v1h-2zM6 15v1h1v-1zM15 15h1v2h1v3h-3v-1h-1v-1h1v-2h1zM29 15v2h-1v1h1v1h2v-1h-1v-1h1v-1h-1v-1zM0 16h1v1h1v1h-2zM6 17v1h1v-1zM23 17h1v1h-1zM14 18v1h1v-1zM22 18h1v1h-1zM24 18h1v2h-2v-1h1zM40 18h1v1h-1zM6 19v1h1v-1zM21 19h1v1h-1zM27 19v1h1v-1zM38 19h2v2h-2zM34 20h1v1h-1zM22 21h1v1h1v-1h1v1h-1v1h-1v1h-2v-1h1zM35 21h1v2h-1zM37 21h1v1h-1zM6 22h1v1h-1zM30 22v2h-2v1h1v2h-2v-1h-1v1h-1v1h2v1h-1v1h-1v1h1v-1h1v1h1v-1h1v-1h1v-1h1v-2h-1v-1h1v-2h1v-1zM26 23v1h1v-1zM32 23v1h1v-1zM39 23h1v1h-1zM23 24h1v1h-1zM0 25h1v1h-1zM2 25h2v1h-1v1h-1v1h-2v-1h1v-1h1zM10 25v2h3v-1h-2v-1zM14 25v2h2v-2zM19 25h1v1h-1zM21 25h1v2h-1zM31 25v1h1v-1zM4 26h1v2h-1zM18 27h1v1h-1zM20 27h1v1h-1zM2 28h1v1h-1zM5 28h3v3h-2v-1h-1zM19 28h1v3h-1v-1h-1v-1h1zM21 28h1v2h-1zM34 28h1v2h-1zM40 28h1v1h-1zM0 29h1v1h1v1h1v1h-1v1h-2zM6 29v1h1v-1zM36 29h1v1h1v1h-1v2h1v-2h1v4h-1v-1h-1v1h1v2h-2v1h1v3h-1v-2h-1v-2h-5v1h-2v2h-1v-2h-1v1h-1v-1h-1v-2h1v1h1v-2h-3v-1h-2v2h1v-1h1v1h-1v1h1v1h-4v-2h1v-1h-2v-1h-1v1h-1v-3h-1v-1h-1v-1h2v2h1v-2h1v3h1v1h1v-3h3v1h-2v1h2v-1h1v1h-1v1h2v-1h1v2h1v-2h1v2h1v-1h3v-1h-1v-3h1v1h1v-1h1v1h-1v1h1v-1h2zM39 29h1v1h-1zM10 30h1v1h-1zM40 30h1v3h-1zM5 31h1v1h1v1h-2zM9 31h1v1h-1zM11 31h2v1h-1v1h-1v1h2v-1h1v-1h1v2h-2v1h-1v1h-1v1h-1v-1h-1v-1h-1v-2h1v1h1v-2h1zM29 32h1v1h-1zM33 33v3h3v-3zM0 34h7v7h-7zM34 34h1v1h-1zM1 35v5h5v-5zM13 35h2v1h-1v1h2v-1h1v-1h1v1h-1v1h-1v2h-2v-1h-1v2h-1v1h-1v-2h1v-2h1zM30 35v1h1v-1zM40 35h1v1h-1zM2 36h3v3h-3zM8 36h1v1h1v3h-1v-2h-1zM28 36v1h1v-1zM39 36h1v1h-1zM17 37h1v2h-1zM40 37h1v3h-1v-1h-1v2h-1v-3h2zM32 38h2v1h1v1h-2v-1h-1zM16 39h1v1h-1zM21 39h2v1h-2zM24 39h1v2h-1zM30 39h2v1h1v1h-2v-1h-1zM13 40h2v1h-2zM18 40h3v1h-3zM26 40h1v1h-1z" fill="##000000" transform="translate(0,0) scale(6)"/>
  </g>
  
  <!-- Label Section -->
  <g transform="translate(0, 276)">
    <!-- Icon (emoji as text) -->
    <text x="83" 
          y="20" 
          font-family="Arial, sans-serif" 
          font-size="20" 
          fill="#333333">🏷️</text>
    
    <!-- Item Title -->
    <text x="108" 
          y="20" 
          font-family="Arial, sans-serif" 
          font-size="12" 
          font-weight="bold"
          fill="#333333" 
          text-anchor="start">Liberty</text>
    
    <!-- Flag -->
    <text x="203" 
          y="20" 
          font-family="Arial, sans-serif" 
          font-size="16" 
          fill="#333333">🇬🇧</text>
  </g>
</svg>
